<?xml version="1.0" encoding="utf-8"?>
<svg viewBox="0 0 500 500" xmlns="http://www.w3.org/2000/svg">
  <g id="freepik--background-complete--inject-42" transform="matrix(1, 0, 0, 1, 6.211149308251549, 25.193525689743836)">
    <rect x="416.78" y="398.49" width="33.12" height="0.25" style="fill:#ebebeb"/>
    <rect x="322.53" y="401.21" width="8.69" height="0.25" style="fill:#ebebeb"/>
    <rect x="396.59" y="389.21" width="19.19" height="0.25" style="fill:#ebebeb"/>
    <rect x="52.46" y="390.89" width="43.19" height="0.25" style="fill:#ebebeb"/>
    <rect x="104.56" y="390.89" width="6.33" height="0.25" style="fill:#ebebeb"/>
    <rect x="131.47" y="395.11" width="93.68" height="0.25" style="fill:#ebebeb"/>
    <path d="M237,337.8H43.91a5.71,5.71,0,0,1-5.7-5.71V60.66A5.71,5.71,0,0,1,43.91,55H237a5.71,5.71,0,0,1,5.71,5.71V332.09A5.71,5.71,0,0,1,237,337.8ZM43.91,55.2a5.46,5.46,0,0,0-5.45,5.46V332.09a5.46,5.46,0,0,0,5.45,5.46H237a5.47,5.47,0,0,0,5.46-5.46V60.66A5.47,5.47,0,0,0,237,55.2Z" style="fill:#ebebeb"/>
    <path d="M453.31,338.06H260.21a5.72,5.72,0,0,1-5.71-5.71V60.92a5.72,5.72,0,0,1,5.71-5.71h193.1A5.71,5.71,0,0,1,459,60.92V332.35A5.71,5.71,0,0,1,453.31,338.06ZM260.21,55.46a5.47,5.47,0,0,0-5.46,5.46V332.35a5.47,5.47,0,0,0,5.46,5.46h193.1a5.47,5.47,0,0,0,5.46-5.46V60.92a5.47,5.47,0,0,0-5.46-5.46Z" style="fill:#ebebeb"/>
    <rect y="382.4" width="500" height="0.25" style="fill:#ebebeb"/>
    <path d="M75.66,148h90.69c11.62,0,14.42-16.26,3.45-20.08l-.43-.14c12.14-10.12-14.49-31.44-43.42-1.92,2.26-9.84-23.46-6.28-31.32,7.15C91.83,124.19,67.31,139.51,75.66,148Z" style="fill:#e6e6e6"/>
    <path d="M318.23,107.45h54.38s12.75-4.8,11.1-17.52-20.9-2.12-20.9-2.12S368.64,70.06,350,75.1s-20.46,22.63-20.46,22.63S305.05,93.45,318.23,107.45Z" style="fill:#ebebeb"/>
    <path d="M368.19,143.23h35.9s8.42-3.17,7.33-11.57-13.8-1.4-13.8-1.4,3.85-11.71-8.46-8.39a18.21,18.21,0,0,0-13.5,14.94S359.49,134,368.19,143.23Z" style="fill:#ebebeb"/>
    <path d="M361.29,325.21l-.1-10.62V314l-.09-9.47v-.6l-.09-9v-.59l-.08-8.57v-.56l-.08-8.18v-.52l-.08-7.82v-.49l-.07-7.47v-.48l-.06-6.18a4.5,4.5,0,0,1-1,.47l0,5.22-6.62,0,5.34-4.89a10.75,10.75,0,0,1-1.67.2l-4.4,4,.08-4.72a3.68,3.68,0,0,1-1-.6l-.12,6.48v.48l-.12,7.47v.51l-.15,7.79V277l-.14,8.16v.56l-.15,8.57v.59l-.16,9v.61l-.17,9.46v.64l-.18,10.61L349.16,371l12.76.15Zm-1.33-2-7.69-8.31h7.64Zm-.12-9.3h-7.61l7.55-7.94Zm.08-11.67-7.32-7.5,7.28,0Zm-.09-8.53-7.24,0,7.2-7.21Zm-.05-9.93-7-6.81,6.94,0Zm0-7.87-6.92,0,6.86-6.58Zm-.12-15.15,0,6.23-6.67-6.2Zm-7.52,1.42,6.67,6.22-6.76,0Zm-.1,7.3,6.76,0L351.89,276Zm-.14,9.11,7,6.82-7.06,0Zm-.1,7.86,7.09,0-7.19,7.18Zm-.14,9.93,7.33,7.53h-7.43Zm-.07,8.54H359l-7.56,7.9Zm-.05,10.46,7.69,8.34h-7.81Z" style="fill:#ebebeb"/>
    <path d="M360.53,252.94l-.51,0-.37-.34-3,2.8a11.79,11.79,0,0,0,1.66-.2l1.25-1.14v.77a4.88,4.88,0,0,0,1-.47Zm-9.26.06,0,1.12a4.43,4.43,0,0,0,1,.6l0-1.72Z" style="fill:#ebebeb"/>
    <path d="M362,252.11a1.8,1.8,0,0,1-.53,1.52l-.36.34a4.83,4.83,0,0,1-.6.41,4.88,4.88,0,0,1-1,.47,6.74,6.74,0,0,1-1.25.37,11.79,11.79,0,0,1-1.66.2h-.75a9.13,9.13,0,0,1-3.57-.72,4.43,4.43,0,0,1-1-.6l-.09-.07-.33-.32a1.66,1.66,0,0,1-.48-1.47l.76-4.26-2,0,7-3.55,7.29,3.32-2.05,0Z" style="fill:#ebebeb"/>
    <polygon points="394.12 257.45 394.39 371.02 402.63 371.02 450.53 371.02 458.77 371.02 459.13 257.45 394.12 257.45" style="fill:#ebebeb"/>
    <polygon points="406.69 243 406.72 268.32 411.82 268.32 441.47 268.32 446.57 268.32 446.62 243 406.69 243" style="fill:#ebebeb"/>
    <polygon points="406.64 268.32 398.22 268.32 398.21 260.74 406.63 260.74 406.64 268.32" style="fill:#fafafa"/>
    <rect x="414.37" y="260.73" width="8.42" height="7.59" style="fill:#fafafa"/>
    <rect x="430.53" y="260.73" width="8.42" height="7.59" style="fill:#fafafa"/>
    <polygon points="455.1 268.32 446.68 268.32 446.7 260.74 455.12 260.74 455.1 268.32" style="fill:#f0f0f0"/>
    <polygon points="406.53 282.15 398.31 282.15 398.29 274.75 406.52 274.75 406.53 282.15" style="fill:#f0f0f0"/>
    <rect x="414.43" y="274.75" width="8.23" height="7.4" style="fill:#f0f0f0"/>
    <rect x="430.57" y="274.75" width="8.23" height="7.4" style="fill:#fafafa"/>
    <polygon points="454.92 282.15 446.69 282.15 446.71 274.75 454.94 274.75 454.92 282.15" style="fill:#fafafa"/>
    <polygon points="406.46 295.63 398.43 295.63 398.41 288.41 406.45 288.41 406.46 295.63" style="fill:#f0f0f0"/>
    <rect x="414.54" y="288.41" width="8.04" height="7.22" style="fill:#fafafa"/>
    <rect x="430.65" y="288.41" width="8.04" height="7.22" style="fill:#fafafa"/>
    <rect x="414.16" y="249.72" width="8.58" height="7.74" style="fill:#fafafa"/>
    <rect x="430.33" y="249.72" width="8.59" height="7.74" style="fill:#f0f0f0"/>
    <polygon points="454.79 295.63 446.76 295.63 446.77 288.41 454.81 288.41 454.79 295.63" style="fill:#f0f0f0"/>
    <polygon points="406.44 308.8 398.59 308.8 398.57 301.75 406.43 301.75 406.44 308.8" style="fill:#fafafa"/>
    <rect x="414.68" y="301.75" width="7.85" height="7.05" style="fill:#f0f0f0"/>
    <polygon points="438.63 308.8 430.78 308.8 430.79 301.75 438.64 301.75 438.63 308.8" style="fill:#f0f0f0"/>
    <polygon points="454.72 308.8 446.87 308.8 446.89 301.75 454.74 301.75 454.72 308.8" style="fill:#fafafa"/>
    <polygon points="406.79 323.6 398.04 323.6 398.02 315.75 406.78 315.75 406.79 323.6" style="fill:#f0f0f0"/>
    <polygon points="422.85 323.6 414.11 323.6 414.1 315.75 422.86 315.75 422.85 323.6" style="fill:#fafafa"/>
    <polygon points="438.92 323.6 430.17 323.6 430.17 315.75 438.93 315.75 438.92 323.6" style="fill:#fafafa"/>
    <polygon points="454.98 323.6 446.23 323.6 446.25 315.75 455 315.75 454.98 323.6" style="fill:#f0f0f0"/>
    <polygon points="406.84 336.1 398.29 336.1 398.27 328.44 406.83 328.44 406.84 336.1" style="fill:#f0f0f0"/>
    <rect x="414.34" y="328.44" width="8.55" height="7.66" style="fill:#fafafa"/>
    <rect x="430.41" y="328.44" width="8.55" height="7.66" style="fill:#f0f0f0"/>
    <polygon points="455.01 336.1 446.46 336.1 446.48 328.44 455.04 328.44 455.01 336.1" style="fill:#fafafa"/>
    <polygon points="406.66 350.17 398.32 350.17 398.31 342.71 406.65 342.71 406.66 350.17" style="fill:#fafafa"/>
    <rect x="414.35" y="342.71" width="8.34" height="7.46" style="fill:#fafafa"/>
    <rect x="430.38" y="342.71" width="8.34" height="7.46" style="fill:#f0f0f0"/>
    <polygon points="454.74 350.17 446.41 350.17 446.42 342.71 454.76 342.71 454.74 350.17" style="fill:#f0f0f0"/>
    <polygon points="406.66 362.96 398.52 362.96 398.51 355.69 406.65 355.69 406.66 362.96" style="fill:#f0f0f0"/>
    <polygon points="454.71 362.96 446.58 362.96 446.59 355.69 454.73 355.69 454.71 362.96" style="fill:#fafafa"/>
    <polygon points="438.76 355.69 414.46 355.69 414.51 357.52 415.18 357.52 415.19 371.02 417.62 371.02 417.61 357.52 435.65 357.52 435.63 371.02 438.06 371.02 438.08 357.52 438.81 357.52 438.76 355.69" style="fill:#f5f5f5"/>
    <polygon points="426.73 371.02 417.73 371.02 417.73 357.52 426.74 357.52 426.73 371.02" style="fill:#e6e6e6"/>
    <polygon points="435.52 371.02 426.51 371.02 426.52 357.52 435.54 357.52 435.52 371.02" style="fill:#ebebeb"/>
    <polygon points="394.21 293.58 394.39 371.02 384.06 371.02 324 371.02 313.66 371.02 312.92 293.58 394.21 293.58" style="fill:#f5f5f5"/>
    <polygon points="378.76 310.79 388.84 310.79 388.81 301.75 378.73 301.75 378.76 310.79" style="fill:#e6e6e6"/>
    <polygon points="358.65 310.79 368.73 310.79 368.69 301.75 358.6 301.75 358.65 310.79" style="fill:#e6e6e6"/>
    <polygon points="338.54 310.79 348.62 310.79 348.56 301.75 338.48 301.75 338.54 310.79" style="fill:#e6e6e6"/>
    <polygon points="318.43 310.79 328.51 310.79 328.43 301.75 318.35 301.75 318.43 310.79" style="fill:#e6e6e6"/>
    <polygon points="378.38 328.44 389.24 328.44 389.21 318.71 378.34 318.71 378.38 328.44" style="fill:#e6e6e6"/>
    <polygon points="358.31 328.44 369.17 328.44 369.12 318.71 358.25 318.71 358.31 328.44" style="fill:#e6e6e6"/>
    <polygon points="338.23 328.44 349.09 328.44 349.03 318.71 338.16 318.71 338.23 328.44" style="fill:#e6e6e6"/>
    <polygon points="318.16 328.44 329.02 328.44 328.94 318.71 318.07 318.71 318.16 328.44" style="fill:#e6e6e6"/>
    <polygon points="378.66 344.58 389.2 344.58 389.18 335.15 378.63 335.15 378.66 344.58" style="fill:#e6e6e6"/>
    <polygon points="358.61 344.58 369.15 344.58 369.11 335.15 358.56 335.15 358.61 344.58" style="fill:#e6e6e6"/>
    <polygon points="338.56 344.58 349.1 344.58 349.04 335.15 338.49 335.15 338.56 344.58" style="fill:#e6e6e6"/>
    <polygon points="318.5 344.58 329.04 344.58 328.97 335.15 318.42 335.15 318.5 344.58" style="fill:#e6e6e6"/>
    <polygon points="378.89 361.15 389.11 361.15 389.09 352.01 378.85 352.01 378.89 361.15" style="fill:#e6e6e6"/>
    <polygon points="318.81 361.15 329.04 361.15 328.96 352.01 318.73 352.01 318.81 361.15" style="fill:#e6e6e6"/>
    <polygon points="338.08 352.01 369.71 352.01 369.72 354.77 367.7 354.77 367.78 371.02 364.85 371.02 364.77 354.77 343.07 354.77 343.18 371.02 340.26 371.02 340.14 354.77 338.11 354.77 338.08 352.01" style="fill:#f5f5f5"/>
    <polygon points="354.09 371.02 364.92 371.02 364.84 354.77 353.99 354.77 354.09 371.02" style="fill:#e6e6e6"/>
    <polygon points="343.11 371.02 353.94 371.02 353.85 354.77 343 354.77 343.11 371.02" style="fill:#ebebeb"/>
    <path d="M152.1,227.29v-3.64a.44.44,0,0,0-.87,0v4a.46.46,0,0,0,.43.44,1.75,1.75,0,1,1-1.75,1.74c0-.55-.92-.55-.87,0,.22,2.17,2.75,3.6,4.47,1.86A2.62,2.62,0,0,0,152.1,227.29Z" style="fill:#ebebeb"/>
    <path d="M88,201.12V209l-8.31-8.31-.41.41H78.7v75H89.16v-75Zm-8.14,57.22,7.32,7.32H79.86Zm0-18.61,7.32,7.32H79.86Zm0-18.6,7.32,7.32H79.86Zm0-18.61,7.32,7.33H79.86ZM87.18,211l-7.32,7.33V211Zm.82.82v7.33H80.68Zm-.82,17.79-7.32,7.32v-7.32Zm.82.82v7.32H80.68Zm-.82,17.78-7.32,7.33v-7.33ZM88,249v7.33H80.68Zm-.82,17.79-7.32,7.32v-7.32ZM80.68,275,88,267.64V275ZM88,264.84l-7.32-7.32H88Zm0-18.61-7.32-7.32H88Zm0-18.6-7.32-7.32H88Z" style="fill:#f0f0f0"/>
    <path d="M79.86,176.42V191H81v-5.57l6,6,.41-.41H88V176.42ZM86,177.58l-5,5v-5Zm.82,12-5-5h5Zm-5-6.15,5-5v5Z" style="fill:#f0f0f0"/>
    <rect x="46.81" y="201.12" width="13.95" height="13.95" style="fill:#e6e6e6"/>
    <polygon points="151.85 221.25 151.07 221.25 151.07 194.43 86.1 172.88 81.81 172.88 47.02 194.47 46.61 193.82 81.58 172.11 86.23 172.11 86.29 172.13 151.85 193.87 151.85 221.25" style="fill:#e6e6e6"/>
    <path d="M143.9,201.73h.8l8.16-8.16H46.23v8.13H143.9Zm1.16-7h5l-5,5Zm-97.67,5.81v-5l5,5Zm5.82-.82-5-5h5Zm1.16-5h5l-5,5Zm5.82,5.81h-5l5-5Zm1.16,0v-5l5,5Zm5.81-.82-5-5h5Zm1.16-5h5l-5,5Zm5.82,5.81h-5l5-5Zm1.16,0v-5l5,5Zm5.82-.82-5-5h5Zm1.16-5h5l-5,5Zm5.81,5.81h-5l5-5Zm1.16,0v-5l5,5Zm5.82-.82-5-5h5Zm1.16-5h5l-5,5Zm5.81,5.81h-5l5-5Zm1.16,0v-5l5,5Zm5.82-.82-5-5h5Zm1.16-5h5l-5,5Zm5.82,5.81h-5l5-5Zm1.16,0v-5l5,5Zm5.81-.82-5-5h5Zm1.16-5h5l-5,5Zm5.82,5.81h-5l5-5Zm1.16-5.81h5l-5,5Zm5.82,5.81h-5l5-5Zm1.16,0v-5l5,5Zm.82-5.81h5v5Z" style="fill:#f0f0f0"/>
    <path d="M94.32,204.29H72.86l.79-9a4.71,4.71,0,0,1,4.7-4.31H88.57a4.73,4.73,0,0,1,4.69,4.18Z" style="fill:#f0f0f0"/>
    <rect x="76.32" y="194.7" width="4.12" height="4.12" style="fill:#fafafa"/>
    <rect x="81.53" y="194.7" width="4.12" height="4.12" style="fill:#fafafa"/>
    <rect x="86.74" y="194.7" width="4.12" height="4.12" style="fill:#fafafa"/>
    <path d="M86.74,174.19a2.81,2.81,0,1,1-2.81-2.81A2.81,2.81,0,0,1,86.74,174.19Z" style="fill:#e6e6e6"/>
    <path d="M151.66,226.05h0a2.4,2.4,0,0,1-2.4-2.4v-2.4h4.8v2.4A2.4,2.4,0,0,1,151.66,226.05Z" style="fill:#e6e6e6"/>
    <polygon points="38.04 257.45 39.9 371.02 48.15 371.02 96.05 371.02 104.29 371.02 103.06 257.45 38.04 257.45" style="fill:#f5f5f5"/>
    <polygon points="42.1 260.74 42.33 274.56 42.39 278.35 42.45 282.15 50.88 282.15 50.82 278.35 50.77 274.56 50.55 260.74 42.1 260.74" style="fill:#e6e6e6"/>
    <polygon points="58.26 260.74 58.47 274.56 58.52 278.35 58.58 282.15 67.01 282.15 66.96 278.35 66.91 274.56 66.72 260.74 58.26 260.74" style="fill:#e6e6e6"/>
    <polygon points="74.42 260.74 74.61 274.56 74.66 278.35 74.71 282.15 83.14 282.15 83.1 278.35 83.05 274.56 82.88 260.74 74.42 260.74" style="fill:#e6e6e6"/>
    <polygon points="90.59 260.74 90.75 274.56 90.82 280.42 90.84 282.15 99.28 282.15 99.26 280.42 99.19 274.56 99.04 260.74 90.59 260.74" style="fill:#e6e6e6"/>
    <polygon points="42.61 288.41 42.84 302.22 42.9 306.01 42.96 309.8 51.4 309.8 51.35 306.01 51.29 302.22 51.08 288.41 42.61 288.41" style="fill:#e6e6e6"/>
    <polygon points="58.73 288.41 58.93 302.22 59.01 307.56 59.04 309.8 67.49 309.8 67.46 307.56 67.39 302.22 67.19 288.41 58.73 288.41" style="fill:#e6e6e6"/>
    <polygon points="74.84 288.41 75.03 302.22 75.08 306.01 75.13 309.8 83.58 309.8 83.53 306.01 83.48 302.22 83.31 288.41 74.84 288.41" style="fill:#e6e6e6"/>
    <polygon points="90.96 288.41 91.13 302.22 91.17 306.01 91.22 309.8 99.66 309.8 99.62 306.01 99.58 302.22 99.43 288.41 90.96 288.41" style="fill:#e6e6e6"/>
    <polygon points="43.09 315.75 43.31 329.5 43.38 333.28 43.44 337.05 51.87 337.05 51.81 333.28 51.75 329.5 51.55 315.75 43.09 315.75" style="fill:#e6e6e6"/>
    <polygon points="59.17 315.75 59.37 329.5 59.42 333.28 59.48 337.05 67.91 337.05 67.86 333.28 67.81 329.5 67.62 315.75 59.17 315.75" style="fill:#e6e6e6"/>
    <polygon points="75.24 315.75 75.42 329.5 75.47 333.28 75.52 337.05 83.96 337.05 83.91 333.28 83.86 329.5 83.69 315.75 75.24 315.75" style="fill:#e6e6e6"/>
    <polygon points="91.32 315.75 91.48 329.5 91.54 334.72 91.57 337.05 100 337.05 99.98 334.72 99.92 329.5 99.77 315.75 91.32 315.75" style="fill:#e6e6e6"/>
    <polygon points="96 342.71 91.83 342.71 84.02 342.71 75.67 342.71 67.86 342.71 59.52 342.71 43.36 342.71 43.48 350.17 59.63 350.17 67.96 350.17 75.77 350.17 84.11 350.17 91.92 350.17 96.09 350.17 100.26 350.17 100.18 342.71 96 342.71" style="fill:#e6e6e6"/>
    <polygon points="84.01 355.69 59.71 355.69 59.69 357.52 60.42 357.52 60.62 371.02 63.05 371.02 62.85 357.52 80.89 357.52 81.06 371.02 83.48 371.02 83.32 357.52 83.99 357.52 84.01 355.69" style="fill:#fafafa"/>
    <polygon points="72.16 371.02 63.16 371.02 62.96 357.52 71.98 357.52 72.16 371.02" style="fill:#e6e6e6"/>
    <polygon points="80.94 371.02 71.94 371.02 71.76 357.52 80.77 357.52 80.94 371.02" style="fill:#e6e6e6"/>
    <polygon points="164.38 264 165.11 371.02 157.34 371.02 112.21 371.02 104.44 371.02 103.11 264 164.38 264" style="fill:#e6e6e6"/>
    <polygon points="142.74 344.58 146.05 344.58 160.9 344.58 160.92 348.01 160.94 351.44 161.04 363.86 153.35 363.86 153.25 351.09 145.75 351.09 142.79 351.09 138.47 351.09 138.41 344.58 142.74 344.58" style="fill:#f0f0f0"/>
    <polygon points="113.44 344.58 116.4 344.58 130.5 344.58 130.57 351.09 115.98 351.09 116.13 363.86 108.44 363.86 108.3 351.44 108.24 346.48 108.21 344.58 113.44 344.58" style="fill:#f0f0f0"/>
    <polygon points="124.18 356.6 145.09 356.6 145.11 358.43 145.34 358.43 145.44 371.02 143.18 371.02 143.07 358.43 126.25 358.43 126.38 371.02 124.12 371.02 123.98 358.43 124.2 358.43 124.18 356.6" style="fill:#f5f5f5"/>
    <polygon points="134.69 371.02 143.09 371.02 142.98 358.43 134.57 358.43 134.69 371.02" style="fill:#ebebeb"/>
    <polygon points="126.47 371.02 134.87 371.02 134.75 358.43 126.34 358.43 126.47 371.02" style="fill:#e0e0e0"/>
    <polygon points="137.31 268.32 160.62 268.32 160.76 288.41 137.5 288.41 137.31 268.32" style="fill:#f0f0f0"/>
    <polygon points="107.09 268.32 130.4 268.32 130.59 288.41 107.33 288.41 107.09 268.32" style="fill:#f0f0f0"/>
    <polygon points="137.96 293.58 160.27 293.58 160.42 312.78 138.13 312.78 137.96 293.58" style="fill:#f0f0f0"/>
    <polygon points="107.79 293.58 130.1 293.58 130.3 312.78 108.01 312.78 107.79 293.58" style="fill:#f0f0f0"/>
    <polygon points="138.19 319.69 160.63 319.69 160.77 338.94 138.36 338.94 138.19 319.69" style="fill:#f0f0f0"/>
    <polygon points="108.11 319.69 130.55 319.69 130.74 338.94 108.33 338.94 108.11 319.69" style="fill:#f0f0f0"/>
  </g>
  <g id="freepik--Shadow--inject-42" transform="matrix(1, 0, 0, 1, 6.211149308251549, 25.193525689743836)">
    <ellipse id="freepik--path--inject-42" cx="250" cy="415.69" rx="193.89" ry="11.32" style="fill:#f5f5f5"/>
  </g>
  <g id="freepik--Company--inject-42" transform="matrix(1, 0, 0, 1, 6.211149308251549, 25.193525689743836)">
    <polygon points="160.83 84.62 164.56 89.44 335.42 89.44 339.18 84.62 160.83 84.62" style="fill:#558CA1"/>
    <g style="opacity:0.4">
      <polygon points="160.83 84.62 164.56 89.44 335.42 89.44 339.18 84.62 160.83 84.62"/>
    </g>
    <rect x="164.21" y="78.41" width="171.25" height="303.58" style="fill:#558CA1"/>
    <g style="opacity:0.4">
      <rect x="164.21" y="78.41" width="171.25" height="303.58" style="fill:#fff"/>
    </g>
    <g style="opacity:0.8">
      <path d="M171.15,85.88a3.11,3.11,0,0,1-3.06,3.57,4,4,0,0,1-3.82-3.57,3.12,3.12,0,0,1,3.07-3.6A4,4,0,0,1,171.15,85.88Z" style="fill:#f0f0f0"/>
      <path d="M177.46,85.88a3.14,3.14,0,0,1-3.1,3.57,4,4,0,0,1-3.78-3.57,3.14,3.14,0,0,1,3.09-3.6A4,4,0,0,1,177.46,85.88Z" style="fill:#f0f0f0"/>
      <path d="M183.76,85.88a3.16,3.16,0,0,1-3.12,3.57,3.92,3.92,0,0,1-3.76-3.57,3.17,3.17,0,0,1,3.12-3.6A3.92,3.92,0,0,1,183.76,85.88Z" style="fill:#f0f0f0"/>
      <path d="M190.06,85.88a3.2,3.2,0,0,1-3.15,3.57,3.89,3.89,0,0,1-3.73-3.57,3.21,3.21,0,0,1,3.16-3.6A3.88,3.88,0,0,1,190.06,85.88Z" style="fill:#f0f0f0"/>
      <path d="M196.37,85.88a3.23,3.23,0,0,1-3.18,3.57,3.85,3.85,0,0,1-3.7-3.57,3.23,3.23,0,0,1,3.18-3.6A3.84,3.84,0,0,1,196.37,85.88Z" style="fill:#f0f0f0"/>
      <path d="M202.67,85.88a3.26,3.26,0,0,1-3.21,3.57,3.81,3.81,0,0,1-3.67-3.57,3.26,3.26,0,0,1,3.21-3.6A3.8,3.8,0,0,1,202.67,85.88Z" style="fill:#f0f0f0"/>
      <path d="M209,85.88a3.29,3.29,0,0,1-3.24,3.57,3.77,3.77,0,0,1-3.64-3.57,3.28,3.28,0,0,1,3.23-3.6A3.78,3.78,0,0,1,209,85.88Z" style="fill:#f0f0f0"/>
      <path d="M215.28,85.88A3.32,3.32,0,0,1,212,89.45a3.73,3.73,0,0,1-3.61-3.57,3.32,3.32,0,0,1,3.26-3.6A3.74,3.74,0,0,1,215.28,85.88Z" style="fill:#f0f0f0"/>
      <path d="M221.58,85.88a3.35,3.35,0,0,1-3.29,3.57,3.7,3.7,0,0,1-3.59-3.57,3.35,3.35,0,0,1,3.3-3.6A3.69,3.69,0,0,1,221.58,85.88Z" style="fill:#f0f0f0"/>
      <path d="M227.89,85.88a3.39,3.39,0,0,1-3.33,3.57A3.65,3.65,0,0,1,221,85.88a3.38,3.38,0,0,1,3.32-3.6A3.66,3.66,0,0,1,227.89,85.88Z" style="fill:#f0f0f0"/>
      <path d="M234.19,85.88a3.42,3.42,0,0,1-3.35,3.57,3.63,3.63,0,0,1-3.53-3.57,3.41,3.41,0,0,1,3.35-3.6A3.62,3.62,0,0,1,234.19,85.88Z" style="fill:#f0f0f0"/>
      <path d="M240.49,85.88a3.45,3.45,0,0,1-3.38,3.57,3.6,3.6,0,0,1-3.5-3.57,3.45,3.45,0,0,1,3.38-3.6A3.58,3.58,0,0,1,240.49,85.88Z" style="fill:#f0f0f0"/>
      <path d="M246.8,85.88a3.48,3.48,0,0,1-3.41,3.57,3.55,3.55,0,0,1-3.47-3.57,3.48,3.48,0,0,1,3.41-3.6A3.56,3.56,0,0,1,246.8,85.88Z" style="fill:#f0f0f0"/>
      <path d="M253.1,85.88a3.44,3.44,0,1,1-3.44-3.6A3.51,3.51,0,0,1,253.1,85.88Z" style="fill:#f0f0f0"/>
      <path d="M259.4,85.88a3.54,3.54,0,0,1-3.46,3.57,3.48,3.48,0,0,1-3.41-3.57,3.54,3.54,0,0,1,3.46-3.6A3.48,3.48,0,0,1,259.4,85.88Z" style="fill:#f0f0f0"/>
      <path d="M265.71,85.88a3.58,3.58,0,0,1-3.5,3.57,3.45,3.45,0,0,1-3.38-3.57,3.58,3.58,0,0,1,3.49-3.6A3.46,3.46,0,0,1,265.71,85.88Z" style="fill:#f0f0f0"/>
      <path d="M272,85.88a3.62,3.62,0,0,1-3.52,3.57,3.43,3.43,0,0,1-3.36-3.57,3.62,3.62,0,0,1,3.53-3.6A3.42,3.42,0,0,1,272,85.88Z" style="fill:#f0f0f0"/>
      <path d="M278.32,85.88a3.66,3.66,0,0,1-3.56,3.57,3.38,3.38,0,0,1-3.32-3.57,3.65,3.65,0,0,1,3.55-3.6A3.39,3.39,0,0,1,278.32,85.88Z" style="fill:#f0f0f0"/>
      <path d="M284.62,85.88A3.7,3.7,0,0,1,281,89.45a3.36,3.36,0,0,1-3.3-3.57,3.69,3.69,0,0,1,3.58-3.6A3.35,3.35,0,0,1,284.62,85.88Z" style="fill:#f0f0f0"/>
      <path d="M290.92,85.88a3.72,3.72,0,0,1-3.6,3.57A3.33,3.33,0,0,1,284,85.88a3.73,3.73,0,0,1,3.61-3.6A3.32,3.32,0,0,1,290.92,85.88Z" style="fill:#f0f0f0"/>
      <path d="M297.23,85.88a3.77,3.77,0,0,1-3.64,3.57,3.29,3.29,0,0,1-3.24-3.57,3.76,3.76,0,0,1,3.64-3.6A3.3,3.3,0,0,1,297.23,85.88Z" style="fill:#f0f0f0"/>
      <path d="M303.53,85.88a3.8,3.8,0,0,1-3.66,3.57,3.27,3.27,0,0,1-3.22-3.57,3.8,3.8,0,0,1,3.67-3.6A3.26,3.26,0,0,1,303.53,85.88Z" style="fill:#f0f0f0"/>
      <path d="M309.83,85.88a3.83,3.83,0,0,1-3.69,3.57A3.24,3.24,0,0,1,303,85.88a3.84,3.84,0,0,1,3.7-3.6A3.23,3.23,0,0,1,309.83,85.88Z" style="fill:#f0f0f0"/>
      <path d="M316.14,85.88a3.88,3.88,0,0,1-3.72,3.57,3.2,3.2,0,0,1-3.16-3.57,3.87,3.87,0,0,1,3.72-3.6A3.21,3.21,0,0,1,316.14,85.88Z" style="fill:#f0f0f0"/>
      <path d="M322.44,85.88a3.92,3.92,0,0,1-3.75,3.57,3.18,3.18,0,0,1-3.13-3.57,3.92,3.92,0,0,1,3.75-3.6A3.18,3.18,0,0,1,322.44,85.88Z" style="fill:#f0f0f0"/>
      <path d="M328.75,85.88A4,4,0,0,1,325,89.45a3.14,3.14,0,0,1-3.1-3.57,4,4,0,0,1,3.78-3.6A3.15,3.15,0,0,1,328.75,85.88Z" style="fill:#f0f0f0"/>
      <path d="M335.05,85.88a4,4,0,0,1-3.81,3.57,3.12,3.12,0,0,1-3.07-3.57,4,4,0,0,1,3.81-3.6A3.12,3.12,0,0,1,335.05,85.88Z" style="fill:#f0f0f0"/>
    </g>
    <polygon points="160.82 79.74 339.19 79.74 339.18 84.62 160.83 84.62 160.82 79.74" style="fill:#558CA1"/>
    <polygon points="160.81 74.86 164.53 79.74 335.44 79.74 339.2 74.86 160.81 74.86" style="fill:#558CA1"/>
    <g style="opacity:0.4">
      <polygon points="160.81 74.86 164.53 79.74 335.44 79.74 339.2 74.86 160.81 74.86"/>
    </g>
    <polygon points="160.79 69.96 339.21 69.96 339.2 74.86 160.81 74.86 160.79 69.96" style="fill:#558CA1"/>
    <g style="opacity:0.8">
      <polygon points="164.52 74.86 335.45 74.86 335.44 79.74 164.53 79.74 164.52 74.86" style="fill:#fff"/>
    </g>
    <g style="opacity:0.7000000000000001">
      <rect x="164.26" y="175.81" width="171.24" height="2.15" style="fill:#fff"/>
    </g>
    <g style="opacity:0.8">
      <rect x="164.61" y="282.52" width="170.88" height="2.14" style="fill:#fff"/>
    </g>
    <rect x="199.75" y="98.79" width="21.17" height="22.87" style="fill:#558CA1"/>
    <rect x="240.41" y="98.79" width="21.17" height="22.87" style="fill:#558CA1"/>
    <rect x="281.07" y="98.79" width="21.17" height="22.87" style="fill:#558CA1"/>
    <rect x="199.75" y="133.03" width="21.17" height="22.87" style="fill:#558CA1"/>
    <rect x="240.41" y="133.03" width="21.17" height="22.87" style="fill:#558CA1"/>
    <rect x="281.07" y="133.03" width="21.17" height="22.87" style="fill:#558CA1"/>
    <rect x="199.75" y="298.99" width="21.17" height="22.87" style="fill:#558CA1"/>
    <rect x="240.41" y="298.99" width="21.17" height="22.87" style="fill:#558CA1"/>
    <rect x="281.07" y="298.99" width="21.17" height="22.87" style="fill:#558CA1"/>
    <rect x="177.07" y="347.14" width="21.17" height="22.87" style="fill:#558CA1"/>
    <rect x="301.45" y="347.14" width="21.17" height="22.87" style="fill:#558CA1"/>
    <rect x="199.75" y="195.98" width="21.17" height="22.87" style="fill:#558CA1"/>
    <rect x="240.41" y="195.98" width="21.17" height="22.87" style="fill:#558CA1"/>
    <rect x="281.07" y="195.98" width="21.17" height="22.87" style="fill:#558CA1"/>
    <rect x="199.75" y="230.22" width="21.17" height="22.87" style="fill:#558CA1"/>
    <rect x="240.41" y="230.22" width="21.17" height="22.87" style="fill:#558CA1"/>
    <rect x="281.07" y="230.22" width="21.17" height="22.87" style="fill:#558CA1"/>
    <g style="opacity:0.8;isolation:isolate">
      <polygon points="225.35 349.82 247.26 349.82 247.17 372.57 225.2 372.57 225.35 349.82" style="fill:#fff"/>
    </g>
    <g style="opacity:0.8;isolation:isolate">
      <polygon points="251.49 349.82 274.3 349.82 273.22 372.57 251.25 372.57 251.49 349.82" style="fill:#fff"/>
    </g>
    <polygon points="277.79 377.15 219.98 377.15 219.75 372.57 278.01 372.57 277.79 377.15" style="fill:#558CA1"/>
    <g style="opacity:0.1">
      <polygon points="277.79 377.15 219.98 377.15 219.75 372.57 278.01 372.57 277.79 377.15" style="fill:#fff"/>
    </g>
    <polygon points="280.12 381.99 217.94 381.99 217.69 377.48 280.35 377.48 280.12 381.99" style="fill:#558CA1"/>
    <g style="opacity:0.4">
      <polygon points="282.18 341.76 215.72 341.76 215.43 336.61 282.44 336.61 282.18 341.76" style="fill:#fff"/>
    </g>
    <polygon points="215.72 341.76 225.35 349.82 274.3 349.82 282.18 341.76 215.72 341.76" style="fill:#263238"/>
    <path d="M220.22,345.53l3.4,27h2.7l-1.09-27h0a5.47,5.47,0,0,0-5,0Z" style="fill:#558CA1"/>
    <path d="M278.62,345.53l-3.33,27h-2.7l1-27h0a4.56,4.56,0,0,1,5,0Z" style="fill:#558CA1"/>
    <polygon points="164.52 74.86 335.45 74.86 335.44 79.74 164.53 79.74 164.52 74.86" style="fill:#558CA1"/>
    <text style="white-space: pre; fill: rgb(51, 51, 51); font-family: Arial, sans-serif; font-size: 17.1px;" x="210.415" y="67.16" transform="matrix(1.383142, 0, 0, 1.374273, -93.209421, -22.51351)">REREPAN</text>
  </g>
  <g id="freepik--Birds--inject-42" transform="matrix(1, 0, 0, 1, 6.211149308251549, 25.193525689743836)">
    <path d="M380.85,83.45a13,13,0,0,1-2.09-.68c-1.26-.49-2.87-1.32-4.56-2.13a13.85,13.85,0,0,0-4.46-1.34c-1.19-.13-2,0-2.11-.31s.59-.89,2-1.16a9.19,9.19,0,0,1,5.43.93,16.77,16.77,0,0,1,4.23,3.14C380.27,82.83,380.85,83.45,380.85,83.45Z" style="fill:#558CA1"/>
    <path d="M388.19,77.54l-1.51.59c-.9.37-2,.89-3.3,1.44-2.53,1.12-4.69,2.28-5,1.77-.16-.23.17-.8.9-1.5a11.27,11.27,0,0,1,3.32-2.18,7.58,7.58,0,0,1,4-.56,6,6,0,0,1,1.21.29Z" style="fill:#558CA1"/>
    <path d="M367.23,87.86l-.41-.25c-.26-.17-.65-.39-1.12-.64a24,24,0,0,0-3.7-1.61c-2.94-1.06-5.57-.82-5.65-1.27,0-.2.6-.54,1.74-.7a9.91,9.91,0,0,1,4.42.49,8.81,8.81,0,0,1,3.68,2.48,6.76,6.76,0,0,1,.8,1.08Z" style="fill:#558CA1"/>
    <path d="M370.12,81.78l-1.06.61-2.35,1.31c-1.77,1-3.14,2.11-3.48,1.81-.15-.15,0-.62.45-1.23a7.25,7.25,0,0,1,2.28-2,6,6,0,0,1,2.92-.7A5,5,0,0,1,370.12,81.78Z" style="fill:#558CA1"/>
    <path d="M364.79,78.32s-1-.35-2.52-1-3.57-1.55-5.82-2.29a16,16,0,0,0-5.89-.82c-1.54.09-2.52.39-2.66.11s.67-1,2.39-1.55a11.75,11.75,0,0,1,6.81.28,17.11,17.11,0,0,1,5.72,3.39A24,24,0,0,1,364.79,78.32Z" style="fill:#558CA1"/>
    <path d="M371.55,69.73l-.56.16c-.37.09-.88.25-1.49.44A42.29,42.29,0,0,0,365,72.11c-3.42,1.53-5.62,3.8-6.09,3.44-.22-.17.06-1,.93-2.08a12.13,12.13,0,0,1,4.29-3.25,10.77,10.77,0,0,1,5.28-.92,8.41,8.41,0,0,1,1.6.27Z" style="fill:#558CA1"/>
    <path d="M139.93,108.71a14.36,14.36,0,0,1-2.09-.68c-1.26-.49-2.88-1.32-4.56-2.14a14.15,14.15,0,0,0-4.47-1.34c-1.19-.13-2,0-2.11-.31s.59-.89,2-1.15a9.1,9.1,0,0,1,5.43.93,16.35,16.35,0,0,1,4.23,3.13C139.35,108.08,139.93,108.71,139.93,108.71Z" style="fill:#558CA1"/>
    <path d="M147.27,102.8l-1.52.59c-.9.36-2,.88-3.3,1.44-2.53,1.11-4.68,2.27-5,1.77-.17-.24.17-.8.89-1.51a11.41,11.41,0,0,1,3.32-2.18,7.73,7.73,0,0,1,4-.56,6.38,6.38,0,0,1,1.2.29A4.06,4.06,0,0,1,147.27,102.8Z" style="fill:#558CA1"/>
    <path d="M126.31,113.11l-.42-.25c-.26-.17-.64-.39-1.11-.64a24.9,24.9,0,0,0-3.7-1.61c-2.94-1-5.58-.82-5.66-1.27,0-.2.61-.54,1.74-.7a9.84,9.84,0,0,1,4.43.5,8.77,8.77,0,0,1,3.68,2.47,6.59,6.59,0,0,1,.79,1.08Z" style="fill:#558CA1"/>
    <path d="M129.19,107l-1.05.61L125.79,109c-1.78,1-3.14,2.11-3.48,1.8-.16-.14,0-.61.45-1.23a7.12,7.12,0,0,1,2.28-1.94,5.94,5.94,0,0,1,2.91-.71A5,5,0,0,1,129.19,107Z" style="fill:#558CA1"/>
  </g>
  <g id="freepik--character-1--inject-67" transform="matrix(1, 0, 0, 1, 271.2482035048039, 161.4823022109613)">
    <g id="freepik--character--inject-67">
      <g id="freepik--bottom--inject-67">
        <path d="M91,272.32c-.44-.06-.43,1.25-.29,1.82s1.87,2.5,5,3.26,7.59.3,9.48.28,5.12,1,7,1.34,5.28-.2,6.44-1.23a2,2,0,0,0,.51-1.54c0-1.26-.11-1.51-.25-1.51Z" style="fill:#37474f"/>
        <path d="M118.63,271c.05.25.09.5.13.75a12.5,12.5,0,0,1,.11,3.86,3.47,3.47,0,0,1-2.35,1.62,11.77,11.77,0,0,1-6.41-.14,19.13,19.13,0,0,0-4.85-.67,46.78,46.78,0,0,1-6.59.05,15.45,15.45,0,0,1-4.8-1.19A6,6,0,0,1,91,272.55a4.43,4.43,0,0,1,2.63-4.3,10,10,0,0,1,4.93-.84c1.85.08,3.23.37,4.87.32a8.17,8.17,0,0,0,3.27-.66,3.2,3.2,0,0,0,1.08-1.42c.29-.57.4-1.08.93-1.12,0,0,7.72.14,8.49.24s.94,3.23,1,3.84.06,1,.17,1.46C118.5,270.38,118.57,270.69,118.63,271Z" style="fill:#455a64"/>
        <path d="M102.05,267.36a1,1,0,0,0-.39-.16c-.75-.14-1.35.57-1.69,1.13a5.32,5.32,0,0,0-.43,1.11,2.69,2.69,0,0,0-.08,1.46c0,.12.12.26.25.24s.15-.17.16-.28a5.87,5.87,0,0,1,.63-1.95,2.6,2.6,0,0,1,.49-.7,2.23,2.23,0,0,1,.76-.44c.11,0,.62,0,.5-.24a.28.28,0,0,0-.09-.1Z" style="fill:#fafafa"/>
        <path d="M104.21,267.44a1.38,1.38,0,0,0-1,.24,2.05,2.05,0,0,0-.62,1,3.13,3.13,0,0,0-.15,2.52c.13.23.34.12.42-.09a3.26,3.26,0,0,0,.12-.77,7.12,7.12,0,0,1,.52-1.64,2.69,2.69,0,0,1,.33-.6,1.27,1.27,0,0,1,.35-.3l.2-.08h.21c0-.11-.11-.17-.22-.2Z" style="fill:#fafafa"/>
        <path d="M106.42,266.9a1.26,1.26,0,0,0-.65.4,1.76,1.76,0,0,0-.32.66,6.42,6.42,0,0,0-.36,1.63,2,2,0,0,0,.24,1.13c.07.14.22.27.37.21s.15-.31.16-.45,0-.53,0-.8a4.63,4.63,0,0,1,1-2.66.15.15,0,0,0,0-.13c0-.07-.12-.08-.19-.07A2,2,0,0,0,106.42,266.9Z" style="fill:#fafafa"/>
        <path d="M99.75,267.48c-.76,0-2.4.95-3.26,3.26A13.32,13.32,0,0,0,96,276a7.51,7.51,0,0,1-4.16-2.14,4.46,4.46,0,0,1-1-1.38,4.63,4.63,0,0,1,.91-3.53c1.15-1.29,2.89-2.1,5.59-2.15,3-.06,3.26.75,3.26.75Z" style="fill:#558CA1"/>
        <path d="M117.65,259.56s-.24,4-.55,5.81c-.17,1-1.19,2.63-4.4,2.57a3.72,3.72,0,0,1-3.78-2.49,63.69,63.69,0,0,1-.18-7.25Z" style="fill:#ffa8a7"/>
        <path d="M162.67,252.19l-5.06-10.94-9.94,2.46s8.25,12.11,9.08,13.2C158.11,258.71,162.67,252.19,162.67,252.19Z" style="fill:#ffa8a7"/>
        <path d="M167.21,255.34a5.79,5.79,0,0,1,0,1.38l-.36,4.77a10.53,10.53,0,0,1-.26,1.87,11.45,11.45,0,0,0-.08,2.27c0,.79,0,1.58,0,2.37a4.27,4.27,0,0,0,0,1c.08.33-5,3.25-7.07,4.38l-.37.17a3.24,3.24,0,0,1-3.34-.78,5.67,5.67,0,0,1,1.39-6.24s.26,0,.21-2c0-1.43,0-2.88-.16-4.31a9,9,0,0,0-.67-2.61,6.38,6.38,0,0,1-.88-2.42,3.69,3.69,0,0,1,.8-1.68,5.19,5.19,0,0,1,1.25-1.35,9,9,0,0,1,3.6-1.78,1.6,1.6,0,0,1,.81,0c.41.12.65.53.93.86a9.31,9.31,0,0,0,2.3,1.71,4.13,4.13,0,0,1,1.88,2.1C167.17,255.13,167.19,255.24,167.21,255.34Z" style="fill:#455a64"/>
        <path d="M157.07,266.54a6.57,6.57,0,0,0-.66,1h0a7.2,7.2,0,0,0-.72,5.28c-3.59-.33-4.54-2.4-4.54-2.4a3.46,3.46,0,0,1,1.87-3.1,4.19,4.19,0,0,1,.78-.41l0,0A5.27,5.27,0,0,1,157.07,266.54Z" style="fill:#558CA1"/>
        <path d="M168.21,255.86c.94.37.7,3,.1,5.47s-.92,3.37-.62,5.45.48,3-.37,3.78-7.6,3.91-7.6,3.91a24.81,24.81,0,0,0,1.51-7.81c.18-4.61.49-7.58,2.63-9.68A4.06,4.06,0,0,1,168.21,255.86Z" style="fill:#558CA1"/>
        <path d="M168.21,255.86c.94.37.7,3,.1,5.47s-.92,3.37-.62,5.45.48,3-.37,3.78-7.6,3.91-7.6,3.91a24.81,24.81,0,0,0,1.51-7.81c.18-4.61.49-7.58,2.63-9.68A4.06,4.06,0,0,1,168.21,255.86Z" style="opacity:0.4"/>
        <path d="M151.14,270.37a12.54,12.54,0,0,0,5.63,2.46c3,.34,3.16-.81,3.48-4.38s.44-8.5,1.84-10.68,3.77-3.13,4.7-2.91c.19-.1,1.11.59,1.42,1a5.19,5.19,0,0,0-4,1.58c-1.88,1.84-2.22,5.73-2.31,9.25s-.24,7.62-3,8.05a10.25,10.25,0,0,1-7.66-2.33A1.43,1.43,0,0,1,151.14,270.37Z" style="fill:#37474f"/>
        <path d="M157.28,265.23a1,1,0,0,0-.41.65,2,2,0,0,0,1,1.85c.38.22.7.13.09-.61A3.88,3.88,0,0,1,157.28,265.23Z" style="fill:#fafafa"/>
        <path d="M157.22,262.74a.9.9,0,0,0-.25.54,3.05,3.05,0,0,0,1.24,2c.66.29.3-.44,0-.78A12.92,12.92,0,0,1,157.22,262.74Z" style="fill:#fafafa"/>
        <path d="M157.06,260a.58.58,0,0,0-.31.44c0,.29,1.34,1.31,1.76,1.27s.53-.17,0-.52S157.06,260,157.06,260Z" style="fill:#fafafa"/>
        <path d="M152.62,252.19S137.77,232,132.44,224.52a18,18,0,0,1-2-4.68c-.65-2.42-4.78-17.31-4.78-17.31l-4.22,21.11a79.72,79.72,0,0,1,1,10.68,48.55,48.55,0,0,1-1.33,12.91c-2.16,10.24-3.54,15.56-3.54,15.56a9,9,0,0,1-4.47,1.12c-4.41,0-4.79-1.87-4.79-1.87s-.71-15.91-1-22.27-.76-12.66-1-16.84c-.31-6.67,0-12.73.62-25,.55-10.86,2.79-28.62,2.79-28.62l29-5.57s6.59,4.65,6.08,20.75c-.35,10.8.65,33.56.65,33.56,5.2,3.6,5.71,6.19,9,14,1.6,3.79,5,11.65,6.15,15.17C156.5,248.37,152.62,252.19,152.62,252.19Z" style="fill:#37474f"/>
        <path d="M125.7,202.53,129,187.81s4.33-.31,10.23-5c0,0-.55,3.86-8.26,6.85l-3.87,12.51,2.33,13.8Z" style="fill:#263238"/>
      </g>
      <g id="freepik--top--inject-67">
        <polygon points="121.5 122.4 122.6 133.82 132.81 133.19 132 120.52 121.5 122.4" style="fill:#ffa8a7"/>
        <path d="M114.45,109.15s-2.78,4.07-2.49,4.43a5.63,5.63,0,0,0,1.74.73Z" style="fill:#f28f8f"/>
        <path d="M120.84,99.22c-1.88,1-5.14,1.94-6.6,7.34-.25.93.12,2.37,0,3.54s-.73,2.77-.76,3.82c-.14,5.5,1.44,7.61,2.4,8.51.76.72,4.71,1,6.77.36,2.57-.79,8.15-3.5,10.77-7.71,3.08-5,3.71-11.58.16-14.17A13.44,13.44,0,0,0,120.84,99.22Z" style="fill: rgb(255, 195, 189);"/>
        <path d="M116.06,122.58a11.53,11.53,0,0,0,5.5.43l-.06-1.46a14.56,14.56,0,0,1-2.6.84A9.54,9.54,0,0,1,116.06,122.58Z" style="fill:#f28f8f"/>
        <path d="M117.94,97.2c-2.34,1.81-4.45,4.68-3,7.7a4.61,4.61,0,0,0,2.12,2.34,3,3,0,0,0,.36,2.05,3.38,3.38,0,0,0,1.46,1.12.38.38,0,0,1,.14.11.3.3,0,0,1,0,.16c0,.31,0,.62,0,.93a1.23,1.23,0,0,0,.16.73.8.8,0,0,0,.85.24,1.44,1.44,0,0,0,.74-.55c.2-.24.35-.52.55-.77a2.74,2.74,0,0,1,2.06-1.33,2.35,2.35,0,0,1,2.27,1.22,4.72,4.72,0,0,1-.43,3.92,3.08,3.08,0,0,1-2.26,1.67,2.16,2.16,0,0,1-1.7-.71s-.4,4.51,3.26,6a14.17,14.17,0,0,0,7.65-.3c.4-.15,1-1.36,1.33-1.71.56-.68,1.14-1.35,1.72-2a20.78,20.78,0,0,0,2.34-3.53,16,16,0,0,0,1.8-9,11.79,11.79,0,0,0-1.87-4.94C134.85,93.77,124.14,92.41,117.94,97.2Z" style="fill:#263238"/>
        <path d="M134.54,127.81c3.79-.89,8,1.8,10.4,7.75s5.74,17.21,6.26,21.28c.28,2.17,1.14,3.5-1.8,4.86a49.23,49.23,0,0,1-13.34,4c.15-.08-3-7.74-3-7.74l7.76-2.41-2.09-6.3Z" style="fill: rgb(255, 195, 189);"/>
        <path d="M141.79,132.33c-.81-3.15-1.86-5.21-7.84-4.93l-.83,0c-2.13.31-5.11.49-10.59.9-.68.13-4.7.84-5.79,1l-.95.53c-3.63,1.19-6.45,2.8-8.88,13.11-.69,2.92-.28,5.57,3.34,8.38-.09,3,.57,5.53.2,8.39-1.17,9.06-1.93,14.24-1.93,14.24s8.16,3.82,20.51,2.62a25.52,25.52,0,0,0,14.2-5.8,108,108,0,0,0-5.54-12.72C138.9,147.83,144.55,143.14,141.79,132.33Z" style="fill:#558CA1"/>
        <path d="M119,129a47.56,47.56,0,0,0-11.66,2.39c-6.61,2.19-16.24,5.31-16.24,5.31s-17.37-7.3-18.23-8.22-1.08-3.33-1.38-4.4a32.43,32.43,0,0,0-1.86-4.78c-.47-1.18-1.84.28-1.75,1.79.13,2,.34,2.81-.15,3.21s-2.76-1.34-6.09-5c-1.94-2.13-3.39-4-4.3-3.2s0,1.71,1.43,3.69a25.82,25.82,0,0,1,1.88,2.71c.18.32-.31.62-.49.81-.35.35-1,.92-1,1.44a4.83,4.83,0,0,1,0,.85c-.15.63-.89,1-1.08,1.58-.13.45.07.93,0,1.39,0,.3-.18.58-.22.87a1.86,1.86,0,0,0,.7,1.57,14.44,14.44,0,0,0,4.26,2.44c1.53.65,3.59.62,5.32,1.71,1.56,1,18.37,12.7,21.88,12.49,3.21-.18,12.51-2,19.11-3.48,7.52-1.63,11.81-7.64,10-14.74C119,129.19,119,129,119,129Z" style="fill: rgb(255, 195, 189);"/>
        <path d="M137.51,100.46s3.14,1.56,3.24,7.91c.07,4.51.23,10.48.28,16.21s1.54,16.7-.93,18.38c-5.19,3.53-14.4,3.43-19.2,1.92s-2.37-12.19-3-15.76l-3.58.51a11.39,11.39,0,0,1,2.78-4.29,13.16,13.16,0,0,0,4.13-9.31c.91,2.27,3.73,3.07,6.43,1.29S137.51,100.46,137.51,100.46Z" style="fill:#263238"/>
      </g>
    </g>
  </g>
  <g id="freepik--Shadow--inject-12" transform="matrix(0.984401047229767, 0, 0, 1.6412200927734375, -2.0367470091096607, -208.68133855881297)" style="">
    <ellipse id="freepik--path--inject-12" cx="245.18" cy="412.39" rx="193.89" ry="11.32" style="fill:#f5f5f5"/>
  </g>
  <g id="freepik--Character--inject-12" transform="matrix(0.7725020051002502, 0, 0, 0.782522976398468, 16.13776040282488, 151.16578899570982)" style="">
    <path d="M115.33,157.05s16.76,7.72,75.43,1.43L181,236.4a209.4,209.4,0,0,1-64.36-6.66Z" style="fill:#558CA1"/>
    <path d="M115.33,157.05s16.76,7.72,75.43,1.43L181,236.4a209.4,209.4,0,0,1-64.36-6.66Z" style="fill:#fff;opacity:0.8"/>
    <path d="M121.19,164.54l1.09,60.75a209.35,209.35,0,0,0,53.63,5.62l8.28-66C149.85,168.11,130.81,166.38,121.19,164.54Z" style="opacity:0.1"/>
    <path d="M185.8,234.7c-.11,1.18-2.27,2-4.81,1.7s-4.52-1.41-4.4-2.59l5.66-77.35c.16-1.65,3.16-2.72,6.7-2.37s6.28,2,6.12,3.61Z" style="fill:#558CA1"/>
    <path d="M185.8,234.7c-.11,1.18-2.27,2-4.81,1.7s-4.52-1.41-4.4-2.59l5.66-77.35c.16-1.65,3.16-2.72,6.7-2.37s6.28,2,6.12,3.61Z" style="fill:#fff;opacity:0.6000000000000001"/>
    <path d="M185.8,234.7c-.11,1.18-2.27,2-4.81,1.7s-4.52-1.41-4.4-2.59,2.27-1.95,4.81-1.71S185.92,233.51,185.8,234.7Z" style="opacity:0.1"/>
    <path d="M158.62,197.08l1.53.06c0-.23,0-.35.09-.59l-.92,0c.06-.35.09-.53.14-.88l-.61,0C158.76,196.19,158.71,196.49,158.62,197.08Z" style="fill:#558CA1"/>
    <path d="M161.69,196.61l1.45,0c0,.24,0,.36-.08.6l-1.46-.05C161.64,197,161.65,196.84,161.69,196.61Zm2.9.08,1.46,0c0,.24-.05.36-.08.6l-1.46,0C164.54,197.05,164.56,196.93,164.59,196.69Z" style="fill:#558CA1"/>
    <path d="M167.5,196.75l1.45,0c0,.25,0,.37-.07.61l-1.46,0C167.45,197.12,167.47,197,167.5,196.75Zm2.91,0h1.45c0,.25,0,.37-.06.61h-1.46C170.37,197.15,170.38,197,170.41,196.79Zm2.91,0h1.46c0,.24,0,.37-.07.61h-1.45C173.28,197.16,173.29,197,173.32,196.79Z" style="fill:#558CA1"/>
    <path d="M176.17,197.39l1.53,0c.06-.62.09-.93.14-1.55h-.61c0,.37,0,.56-.08.93h-.92C176.21,197,176.2,197.14,176.17,197.39Z" style="fill:#558CA1"/>
    <path d="M177.5,192.88h.6c0,.59-.08.89-.13,1.48h-.6C177.42,193.77,177.45,193.47,177.5,192.88Zm.26-2.95.6,0c-.05.59-.08.89-.13,1.48l-.6,0C177.68,190.81,177.71,190.52,177.76,189.93Z" style="fill:#558CA1"/>
    <path d="M178,187l.59,0c0,.6-.07.89-.12,1.49l-.59,0C177.94,187.86,178,187.56,178,187Zm.24-3,.59,0c-.05.59-.07.89-.12,1.48l-.59,0C178.18,184.89,178.21,184.6,178.25,184Zm.24-3,.58,0c0,.6-.07.9-.11,1.49l-.59,0C178.42,181.93,178.44,181.63,178.49,181Z" style="fill:#558CA1"/>
    <path d="M178.61,179.55l.57,0c0-.62.07-.93.12-1.56l-1.43.09-.05.62.86,0C178.65,179,178.64,179.17,178.61,179.55Z" style="fill:#558CA1"/>
    <path d="M172.39,178.3l1.37-.05c0,.24,0,.37-.06.61l-1.37.06C172.36,178.67,172.37,178.55,172.39,178.3Zm2.74-.12,1.37-.07-.05.63-1.38.06C175.1,178.55,175.11,178.43,175.13,178.18Z" style="fill:#558CA1"/>
    <path d="M164.18,178.5h1.37c0,.24-.05.36-.08.6H164.1C164.14,178.86,164.15,178.74,164.18,178.5Zm2.74,0,1.37,0c0,.24,0,.37-.07.61l-1.37,0C166.87,178.83,166.89,178.7,166.92,178.46Zm2.73-.06,1.37-.05c0,.25,0,.37-.06.61l-1.37,0C169.61,178.76,169.63,178.64,169.65,178.4Z" style="fill:#558CA1"/>
    <path d="M161.17,180h.58c.05-.36.07-.53.12-.89h.86c0-.24.05-.36.08-.6h-1.43C161.3,179.12,161.25,179.42,161.17,180Z" style="fill:#558CA1"/>
    <path d="M160.56,184.28h.58l-.2,1.42h-.59C160.44,185.13,160.48,184.85,160.56,184.28Zm.41-2.84h.58l-.2,1.42h-.58Z" style="fill:#558CA1"/>
    <path d="M159.29,192.78l.6,0c-.08.56-.13.85-.21,1.41l-.61,0C159.16,193.63,159.2,193.34,159.29,192.78Zm.43-2.83.6,0c-.09.56-.13.85-.22,1.41l-.59,0C159.59,190.8,159.64,190.52,159.72,190Zm.42-2.83h.59l-.2,1.42-.6,0C160,188,160.06,187.68,160.14,187.12Z" style="fill:#558CA1"/>
    <path d="M140.24,195.68l1.52.16c.05-.23.07-.34.12-.56l-.9-.1c.07-.33.11-.5.18-.84l-.6-.06Z" style="fill:#558CA1"/>
    <path d="M143.33,195.42l1.44.13-.12.57L143.2,196Zm2.89.26,1.44.12c0,.23-.07.34-.11.57l-1.45-.12C146.15,196,146.17,195.9,146.22,195.68Z" style="fill:#558CA1"/>
    <path d="M149.11,195.91l1.45.11c-.05.23-.07.34-.11.57l-1.45-.11C149,196.25,149.06,196.14,149.11,195.91Zm2.89.2,1.45.1-.1.58-1.45-.1Zm2.9.18,1.45.08-.1.59-1.45-.08Z" style="fill:#558CA1"/>
    <path d="M157.71,197l1.52.07c.09-.59.14-.88.23-1.47l-.61,0c0,.36-.08.53-.14.89l-.91-.05C157.76,196.68,157.75,196.8,157.71,197Z" style="fill:#558CA1"/>
    <path d="M159.29,192.78l.6,0c-.08.56-.13.85-.21,1.41l-.61,0C159.16,193.62,159.2,193.34,159.29,192.78Zm.43-2.83.6,0c-.09.56-.13.85-.22,1.41l-.59,0C159.59,190.8,159.64,190.52,159.72,190Z" style="fill:#558CA1"/>
    <path d="M160.14,187.12h.59l-.2,1.42-.6,0C160,188,160.06,187.68,160.14,187.12Zm.42-2.84h.58l-.2,1.42h-.59C160.44,185.13,160.48,184.85,160.56,184.28Zm.41-2.84h.58l-.2,1.42h-.58Z" style="fill:#558CA1"/>
    <path d="M161.17,180h.58l.2-1.49h-1.43c0,.24-.05.36-.08.59h.86C161.25,179.47,161.22,179.65,161.17,180Z" style="fill:#558CA1"/>
    <path d="M155.05,178.46l1.37,0-.1.59L155,179Zm2.73,0h1.37c0,.24-.05.36-.09.6l-1.37,0C157.73,178.86,157.75,178.74,157.78,178.5Z" style="fill:#558CA1"/>
    <path d="M146.86,178.17l1.36.06c0,.23-.07.35-.11.58l-1.37-.07C146.79,178.52,146.81,178.4,146.86,178.17Zm2.73.12,1.36.05-.1.58-1.37,0C149.52,178.64,149.54,178.52,149.59,178.29Zm2.73.1,1.36,0c0,.24-.05.36-.09.59l-1.37,0Z" style="fill:#558CA1"/>
    <path d="M143.77,179.44l.57,0c.07-.34.11-.51.18-.86l.86,0c0-.23.06-.34.11-.57l-1.43-.08C143.94,178.59,143.88,178.87,143.77,179.44Z" style="fill:#558CA1"/>
    <path d="M142.91,183.51l.58,0-.28,1.35-.59,0C142.74,184.32,142.8,184.05,142.91,183.51Zm.57-2.71.58,0-.28,1.35-.58,0Z" style="fill:#558CA1"/>
    <path d="M141.16,191.59l.6.06-.3,1.35-.6-.06Zm.59-2.69.59,0c-.12.54-.17.81-.29,1.35l-.6-.05Zm.58-2.69.59,0c-.11.54-.17.81-.29,1.36l-.59-.05C142.16,187,142.22,186.75,142.33,186.21Z" style="fill:#558CA1"/>
    <path d="M122,193.21l1.5.24.15-.53-.9-.15c.1-.31.15-.47.24-.79l-.6-.1C122.24,192.41,122.17,192.68,122,193.21Z" style="fill:#558CA1"/>
    <path d="M125.1,193.14l1.43.22-.15.54-1.44-.22C125,193.47,125,193.36,125.1,193.14Zm2.86.43,1.44.21-.15.54-1.44-.2Z" style="fill:#558CA1"/>
    <path d="M130.83,194l1.44.19c-.06.22-.09.33-.14.55l-1.44-.2C130.75,194.31,130.77,194.2,130.83,194Zm2.87.37,1.44.18c0,.22-.08.33-.13.56l-1.44-.19Zm2.88.35,1.44.17c-.05.22-.08.33-.13.56l-1.44-.17C136.5,195,136.53,194.93,136.58,194.7Z" style="fill:#558CA1"/>
    <path d="M139.34,195.59l1.51.16c.13-.56.19-.85.31-1.41l-.6-.06c-.08.34-.11.51-.19.84l-.91-.09C139.41,195.25,139.39,195.36,139.34,195.59Z" style="fill:#558CA1"/>
    <path d="M141.16,191.59l.6.06-.3,1.35-.6-.06Zm.59-2.69.59,0c-.12.54-.17.81-.29,1.35l-.6-.05Z" style="fill:#558CA1"/>
    <path d="M142.33,186.21l.59,0c-.11.54-.17.81-.29,1.36l-.59-.05C142.16,187,142.22,186.75,142.33,186.21Zm.58-2.7.58,0-.28,1.35-.59,0C142.74,184.32,142.8,184.05,142.91,183.51Zm.57-2.71.58,0-.28,1.35-.58,0Z" style="fill:#558CA1"/>
    <path d="M143.77,179.44l.57,0c.12-.57.18-.86.29-1.43L143.2,178c0,.23-.07.34-.12.57l.86.05Z" style="fill:#558CA1"/>
    <path d="M137.75,177.58l1.36.11c-.05.22-.07.34-.12.56l-1.37-.11C137.67,177.92,137.7,177.81,137.75,177.58Zm2.73.21,1.36.09-.12.57-1.37-.1Z" style="fill:#558CA1"/>
    <path d="M129.59,176.82,131,177c-.06.22-.08.33-.14.55l-1.36-.15C129.51,177.14,129.53,177,129.59,176.82Zm2.72.28,1.36.13c-.06.22-.08.33-.14.55l-1.36-.13C132.23,177.43,132.25,177.32,132.31,177.1Zm2.72.25,1.36.12-.13.56-1.36-.12Z" style="fill:#558CA1"/>
    <path d="M126.44,177.85l.57.07c.09-.33.13-.49.22-.81l.86.1c.06-.22.09-.33.14-.55l-1.42-.16Z" style="fill:#558CA1"/>
    <path d="M125.36,181.69l.57.08c-.14.51-.21.77-.36,1.28L125,183Zm.72-2.56.57.07c-.14.52-.21.77-.36,1.29l-.57-.08C125.86,179.9,125.94,179.64,126.08,179.13Z" style="fill:#558CA1"/>
    <path d="M123.15,189.34l.59.09c-.15.51-.22.77-.37,1.27l-.59-.09Zm.74-2.54.59.08-.37,1.28-.59-.09Zm.74-2.55.58.08c-.15.51-.22.77-.36,1.28l-.59-.09Z" style="fill:#558CA1"/>
    <path d="M149.82,218.82l1.63.18c0-.23.06-.35.11-.58l-1-.1.17-.87-.65-.07C150,218,149.93,218.25,149.82,218.82Z" style="fill:#558CA1"/>
    <path d="M153.57,218.63l2,.2-.1.58-2-.2C153.5,219,153.52,218.86,153.57,218.63Zm4,.38,2,.17-.1.59-2-.17Z" style="fill:#558CA1"/>
    <path d="M161.63,219.34l2,.15c0,.24-.06.36-.09.59-.81-.05-1.22-.08-2-.15Zm4,.28,2,.13c0,.24-.05.36-.08.6l-2-.13C165.62,220,165.63,219.86,165.67,219.62Zm4,.24,2,.09c0,.25-.05.37-.08.61l-2-.1C169.67,220.22,169.68,220.1,169.71,219.86Z" style="fill:#558CA1"/>
    <path d="M173.69,220.65l1.65.06c.07-.61.1-.91.17-1.53l-.66,0-.1.92-1,0C173.74,220.28,173.72,220.4,173.69,220.65Z" style="fill:#558CA1"/>
    <path d="M175.27,215.39h.65c-.08.76-.12,1.14-.21,1.89h-.65C175.15,216.52,175.19,216.14,175.27,215.39Zm.41-3.79.64,0-.2,1.89h-.64Z" style="fill:#558CA1"/>
    <path d="M176.07,207.81h.63c-.07.76-.11,1.14-.19,1.9h-.63C176,209,176,208.57,176.07,207.81Zm.38-3.79h.63c-.08.76-.11,1.14-.19,1.9h-.63C176.34,205.16,176.38,204.78,176.45,204Zm.37-3.81h.62c-.07.76-.11,1.14-.18,1.9h-.62C176.71,201.35,176.75,201,176.82,200.21Z" style="fill:#558CA1"/>
    <path d="M177,198.3h.62c0-.62.08-.93.14-1.55l-1.53,0c0,.25,0,.37-.06.62h.92C177.06,197.75,177,197.93,177,198.3Z" style="fill:#558CA1"/>
    <path d="M168.69,196.77l1.89,0c0,.24-.05.36-.07.61l-1.89,0C168.65,197.13,168.66,197,168.69,196.77Zm3.77,0h1.89c0,.25,0,.37-.07.61h-1.89C172.42,197.16,172.43,197,172.46,196.8Z" style="fill:#558CA1"/>
    <path d="M157.4,196.43l1.88.08c0,.24-.05.36-.09.59l-1.88-.09Zm3.76.16,1.88.06c0,.24,0,.36-.08.6l-1.89-.07C161.11,196.94,161.13,196.82,161.16,196.59Zm3.76.11,1.89,0c0,.24-.05.36-.08.6l-1.89,0C164.88,197.06,164.89,196.94,164.92,196.7Z" style="fill:#558CA1"/>
    <path d="M153.75,197.7l.61,0,.15-.88.91,0,.1-.58-1.52-.09Z" style="fill:#558CA1"/>
    <path d="M152.79,203.09l.62,0c-.13.72-.19,1.08-.32,1.8l-.63-.05C152.59,204.17,152.66,203.81,152.79,203.09Zm.64-3.59.62,0c-.13.72-.19,1.08-.32,1.8l-.62,0C153.24,200.58,153.3,200.22,153.43,199.5Z" style="fill:#558CA1"/>
    <path d="M150.79,213.82l.64.07c-.14.71-.2,1.07-.34,1.78l-.64-.07C150.58,214.89,150.65,214.54,150.79,213.82Zm.68-3.56.63.05c-.13.72-.2,1.08-.33,1.79l-.64-.06C151.26,211.33,151.33,211,151.47,210.26Zm.66-3.58.63,0c-.13.72-.2,1.08-.33,1.79l-.63-.05C151.93,207.75,152,207.4,152.13,206.68Z" style="fill:#558CA1"/>
    <path d="M125.25,215.11c.64.12,1,.19,1.6.3.07-.21.1-.32.16-.54l-1-.17c.09-.33.14-.49.23-.81l-.64-.12C125.48,214.31,125.4,214.58,125.25,215.11Z" style="fill:#558CA1"/>
    <path d="M129,215.23l2,.35c-.05.21-.08.32-.14.54l-2-.35Zm4,.68,2,.32-.13.55-2-.32C132.88,216.24,132.91,216.13,133,215.91Z" style="fill:#558CA1"/>
    <path d="M137,216.54l2,.29c-.05.23-.07.34-.13.56-.8-.11-1.2-.17-2-.3C136.87,216.87,136.89,216.76,137,216.54Zm4,.58,2,.27-.12.57-2-.28C140.87,217.46,140.89,217.34,140.94,217.12Zm4,.53,2,.25-.12.57-2-.25C144.87,218,144.9,217.88,145,217.65Z" style="fill:#558CA1"/>
    <path d="M148.84,218.71l1.63.18c.11-.57.17-.86.28-1.44l-.65-.07-.17.87-1-.11Z" style="fill:#558CA1"/>
    <path d="M150.79,213.82l.64.07c-.14.71-.2,1.07-.34,1.78l-.64-.07C150.58,214.89,150.65,214.54,150.79,213.82Zm.68-3.56.63.05c-.13.72-.2,1.08-.33,1.79l-.64-.06C151.26,211.33,151.33,211,151.47,210.26Z" style="fill:#558CA1"/>
    <path d="M152.13,206.68l.63,0c-.13.72-.2,1.08-.33,1.79l-.63-.05C151.93,207.75,152,207.4,152.13,206.68Zm.66-3.59.62,0c-.13.72-.19,1.08-.32,1.8l-.63-.05C152.59,204.17,152.66,203.81,152.79,203.09Zm.64-3.59.62,0c-.13.72-.19,1.08-.32,1.8l-.62,0C153.24,200.58,153.3,200.22,153.43,199.5Z" style="fill:#558CA1"/>
    <path d="M153.75,197.7l.61,0,.25-1.46-1.52-.09-.1.58.91,0Z" style="fill:#558CA1"/>
    <path d="M145.6,195.62l1.87.16c-.05.23-.07.34-.11.57l-1.88-.16Zm3.74.31,1.88.13c-.05.23-.07.35-.11.58l-1.88-.14C149.28,196.27,149.3,196.16,149.34,195.93Z" style="fill:#558CA1"/>
    <path d="M134.39,194.44l1.86.23-.13.55-1.87-.23C134.31,194.77,134.34,194.66,134.39,194.44Zm3.73.44,1.87.2c-.05.23-.08.34-.13.56l-1.87-.2C138,195.21,138.07,195.1,138.12,194.88Zm3.73.39,1.87.18c0,.23-.07.34-.12.57l-1.87-.18C141.78,195.61,141.81,195.5,141.85,195.27Z" style="fill:#558CA1"/>
    <path d="M130.67,195.37l.6.08c.09-.33.13-.49.21-.82l.91.12c.05-.22.08-.33.14-.55-.6-.08-.91-.11-1.51-.2Z" style="fill:#558CA1"/>
    <path d="M129.32,200.42l.62.09-.45,1.68-.62-.1Zm.9-3.37.61.09-.45,1.69-.61-.09Z" style="fill:#558CA1"/>
    <path d="M126.57,210.45l.63.11c-.18.67-.27,1-.46,1.67l-.64-.12C126.29,211.45,126.38,211.11,126.57,210.45Zm.93-3.34.63.11c-.19.67-.28,1-.46,1.67l-.63-.11C127.22,208.11,127.31,207.78,127.5,207.11Zm.92-3.34.62.1c-.18.67-.28,1-.46,1.67l-.62-.1C128.14,204.77,128.23,204.44,128.42,203.77Z" style="fill:#558CA1"/>
    <path d="M101.07,209.59l1.58.42c.08-.2.11-.3.19-.5l-1-.25c.12-.3.17-.45.29-.74l-.63-.17Z" style="fill:#558CA1"/>
    <path d="M104.79,210l1.95.5-.18.5c-.78-.2-1.18-.29-2-.5C104.68,210.31,104.71,210.21,104.79,210Zm3.91,1,2,.47-.17.51-2-.47C108.59,211.29,108.62,211.19,108.7,211Z" style="fill:#558CA1"/>
    <path d="M112.62,211.91l2,.44-.17.52c-.79-.17-1.18-.26-2-.45C112.51,212.22,112.55,212.12,112.62,211.91Zm3.93.88,2,.42-.17.52-2-.42C116.45,213.1,116.48,213,116.55,212.79Zm3.94.82,2,.4-.15.53-2-.4C120.39,213.93,120.42,213.83,120.49,213.61Z" style="fill:#558CA1"/>
    <path d="M124.29,214.93l1.6.3c.15-.53.23-.8.38-1.34l-.64-.12c-.09.32-.14.48-.23.81l-1-.19Z" style="fill:#558CA1"/>
    <path d="M126.57,210.45l.63.11c-.18.67-.27,1-.46,1.67l-.64-.12C126.29,211.45,126.38,211.11,126.57,210.45Zm.93-3.34.63.11c-.19.67-.28,1-.46,1.67l-.63-.11C127.22,208.11,127.31,207.78,127.5,207.11Z" style="fill:#558CA1"/>
    <path d="M128.42,203.77l.62.1c-.18.67-.28,1-.46,1.68l-.62-.11C128.14,204.77,128.23,204.44,128.42,203.77Zm.9-3.35.62.09-.45,1.68-.62-.1Zm.9-3.37.61.09-.45,1.69-.61-.09Z" style="fill:#558CA1"/>
    <path d="M130.67,195.37l.6.08.35-1.37-1.5-.2c-.06.22-.09.33-.14.54l.9.13C130.79,194.88,130.75,195,130.67,195.37Z" style="fill:#558CA1"/>
    <path d="M122.7,192.76l1.85.3-.15.53c-.75-.11-1.12-.17-1.86-.3Zm3.71.58,1.85.28-.15.54-1.86-.28C126.31,193.67,126.34,193.56,126.41,193.34Z" style="fill:#558CA1"/>
    <path d="M111.62,190.75l1.84.36-.17.52-1.85-.37C111.51,191.06,111.55,191,111.62,190.75Zm3.68.72,1.85.34-.17.52-1.85-.34C115.2,191.78,115.24,191.67,115.3,191.47Zm3.7.67,1.84.32-.15.52-1.86-.32Z" style="fill:#558CA1"/>
    <path d="M107.84,191.33l.6.13.27-.76.89.19c.07-.21.11-.31.18-.51l-1.49-.31Z" style="fill:#558CA1"/>
    <path d="M106.16,196l.6.14c-.22.62-.34.93-.56,1.56l-.61-.15Zm1.12-3.11.6.13c-.22.63-.33.94-.56,1.56l-.6-.13C107,193.82,107.06,193.51,107.28,192.89Z" style="fill:#558CA1"/>
    <path d="M102.71,205.28l.63.16-.58,1.54-.63-.17C102.37,206.2,102.48,205.89,102.71,205.28Zm1.16-3.08.62.15-.58,1.54-.62-.15C103.53,203.12,103.64,202.81,103.87,202.2Zm1.15-3.1.61.15-.57,1.55-.61-.15Z" style="fill:#558CA1"/>
    <polygon points="87.23 214.72 94.17 218.44 96.36 208.71 88.16 206.42 87.23 214.72" style="fill:#ffc3bd"/>
    <path d="M95,166.78s-9.87-.86-12.16,12-9.44,27.33,0,35.06l5.44,3.29a23.75,23.75,0,0,0,5.15-10.45l-3.08-2.14,2.36-8.88S99,169.78,95,166.78Z" style="fill:#558CA1"/>
    <path d="M95,166.78s-9.87-.86-12.16,12-9.44,27.33,0,35.06l5.44,3.29a23.75,23.75,0,0,0,5.15-10.45l-3.08-2.14,2.36-8.88S99,169.78,95,166.78Z" style="fill:#fff;opacity:0.5"/>
    <path d="M103,384.15,98,399.56a2,2,0,0,0,.79,2.21,54.59,54.59,0,0,0,5.22,3.11,67.76,67.76,0,0,0,7.18,2.19,1.93,1.93,0,0,1,1.44,1.87h0a1.94,1.94,0,0,1-1.94,1.94H86.11a2,2,0,0,1-1.92-2.24l4.23-26.49a1.94,1.94,0,0,1,2.11-1.62l10.78,1.1A1.94,1.94,0,0,1,103,384.15Z" style="fill:#263238"/>
    <path d="M93.28,235.57l27.1,1s2,70,.1,89.86c-1.69,17.81-13.14,47.39-15.36,56.64a1.87,1.87,0,0,1-2.07,1.41L89,382.63a1.87,1.87,0,0,1-1.62-2.1c1-7.4,3.65-23.21,10.09-49.37a62.85,62.85,0,0,0,1.8-13.65c.2-9.85.28-27.69-1.26-40.83C96.66,265.25,91.8,253.4,93.28,235.57Z" style="fill:#558CA1"/>
    <path d="M103,384.15,98,399.56a2,2,0,0,0,.79,2.21,54.59,54.59,0,0,0,5.22,3.11,67.76,67.76,0,0,0,7.18,2.19,1.93,1.93,0,0,1,1.44,1.87h0a1.94,1.94,0,0,1-1.94,1.94H86.11a2,2,0,0,1-1.92-2.24l4.23-26.49a1.94,1.94,0,0,1,2.11-1.62l10.78,1.1A1.94,1.94,0,0,1,103,384.15Z" style="fill:#263238"/>
    <path d="M93.28,235.57l27.1,1s2,70,.1,89.86c-1.69,17.81-13.14,47.39-15.36,56.64a1.87,1.87,0,0,1-2.07,1.41L89,382.63a1.87,1.87,0,0,1-1.62-2.1c1-7.4,3.65-23.21,10.09-49.37a62.85,62.85,0,0,0,1.8-13.65c.2-9.85.28-27.69-1.26-40.83C96.66,265.25,91.8,253.4,93.28,235.57Z" style="fill:#558CA1"/>
    <path d="M93.28,235.57l27.1,1s2,70,.1,89.86c-1.69,17.81-13.14,47.39-15.36,56.64a1.87,1.87,0,0,1-2.07,1.41L89,382.63a1.87,1.87,0,0,1-1.62-2.1c1-7.4,3.65-23.21,10.09-49.37a62.85,62.85,0,0,0,1.8-13.65c.2-9.85.28-27.69-1.26-40.83C96.66,265.25,91.8,253.4,93.28,235.57Z" style="opacity:0.2"/>
    <path d="M112.5,252.64a251.7,251.7,0,0,0,8.9,59.86c.35-11.9-.44-42.61-.61-54.66l-3.42-5.2Z" style="opacity:0.2"/>
    <path d="M148.16,382.9l-1.27,16.88a1.91,1.91,0,0,0,.91,1.79A67.51,67.51,0,0,0,154,405a76.45,76.45,0,0,0,7.6,2.14A1.91,1.91,0,0,1,163,409h0a1.92,1.92,0,0,1-1.92,1.92h-25a1.92,1.92,0,0,1-1.92-1.86l-.75-25.65a1.93,1.93,0,0,1,1.82-2l10.93-.55A1.92,1.92,0,0,1,148.16,382.9Z" style="fill:#263238"/>
    <path d="M136.57,237.71s14.24,73.41,15.59,88.67c1.23,13.84-1.79,45.93-2.25,56.14a1.7,1.7,0,0,1-1.71,1.63H133.76a1.7,1.7,0,0,1-1.71-1.66c-.18-7.63-.49-26,.22-44.64a61.58,61.58,0,0,0-3-21.26c-5.1-15.9-14.37-45.87-17.65-63.71-.7-3.82-1.91-15.43-1.91-15.43Z" style="fill:#558CA1"/>
    <path d="M136.57,237.71s14.24,73.41,15.59,88.67c1.23,13.84-1.79,45.93-2.25,56.14a1.7,1.7,0,0,1-1.71,1.63H133.76a1.7,1.7,0,0,1-1.71-1.66c-.18-7.63-.49-26,.22-44.64a61.58,61.58,0,0,0-3-21.26c-5.1-15.9-14.37-45.87-17.65-63.71-.7-3.82-1.91-15.43-1.91-15.43Z" style="opacity:0.2"/>
    <path d="M104.18,164.26s5.4-.54,5.34-10.48c0,0,5-2.27,8.23.68s-3,9.79,1.06,12.69S104.18,164.26,104.18,164.26Z" style="fill:#ffc3bd"/>
    <path d="M114.75,158.47a18.56,18.56,0,0,0,2.94,3.55c.29-1.28.71-2.62.92-3.85Z" style="opacity:0.1"/>
    <polygon points="165 198.61 181.75 196.75 184.9 191.74 188.9 189.32 192.05 190.87 189.9 201.61 186.47 202.94 182.46 202.94 165 207.62 165 198.61" style="fill:#ffc3bd"/>
    <path d="M137,168.84s8.31-.57,16,12.59l7.44,14.89h5.73s3.15,8.3,0,13.16c0,0-11.16,4.3-29.2-18l-3.72-14.6Z" style="fill:#558CA1"/>
    <path d="M137,168.84s8.31-.57,16,12.59l7.44,14.89h5.73s3.15,8.3,0,13.16c0,0-11.16,4.3-29.2-18l-3.72-14.6Z" style="fill:#fff;opacity:0.5"/>
    <path d="M92.21,241.19s29.77,5,46.18,0c0,0-3.82-16,1.9-43.5,0,0-5.72-14.5,0-29,0,0-22.89-6.87-46.94-2.68a186.11,186.11,0,0,0-2.67,25.57C90.25,204,89.92,211.81,92.21,241.19Z" style="fill:#558CA1"/>
    <path d="M102.61,166.78s-1.15-6.59,10-5.44,13.16,6.87,13.16,6.87Z" style="fill:#558CA1"/>
    <path d="M91.12,225.84a310.33,310.33,0,0,0,33.48,1.78c4,0,8.2-.08,12.55-.26,0-1.42,0-3,0-4.57a310.31,310.31,0,0,1-46.34-1.58C90.94,222.67,91,224.21,91.12,225.84Z" style="fill:#263238"/>
    <path d="M123.83,208.94c-.16-11,.77-34.67,6.81-40.92a4,4,0,0,1,1.82-1.16c-1.76-.34-3.77-.68-6-1-3.44,4.46-5.69,13.22-6.69,26.07-.54,7-.57,13.46-.54,16.83a223.47,223.47,0,0,1-22.45-2.19c.1-5.69.49-22.11,1.64-30.15A54.11,54.11,0,0,1,101,165c-1.66.14-3.34.33-5,.57a71.23,71.23,0,0,0-2.11,10.19c-1.15,8.09-1.55,23.76-1.67,30.05l-1.86-.33c0,1.47,0,3,.06,4.69a223.45,223.45,0,0,0,39.35,3.42c2.6,0,5.3-.05,8.05-.15.15-1.48.33-3,.54-4.6C133.29,209.07,128.42,209.07,123.83,208.94Z" style="fill:#263238"/>
    <path d="M91.12,225.84a310.33,310.33,0,0,0,33.48,1.78c4,0,8.2-.08,12.55-.26,0-1.42,0-3,0-4.57a310.31,310.31,0,0,1-46.34-1.58C90.94,222.67,91,224.21,91.12,225.84Z" style="fill:#fff;opacity:0.8"/>
    <path d="M123.83,208.94c-.16-11,.77-34.67,6.81-40.92a4,4,0,0,1,1.82-1.16c-1.76-.34-3.77-.68-6-1-3.44,4.46-5.69,13.22-6.69,26.07-.54,7-.57,13.46-.54,16.83a223.47,223.47,0,0,1-22.45-2.19c.1-5.69.49-22.11,1.64-30.15A54.11,54.11,0,0,1,101,165c-1.66.14-3.34.33-5,.57a71.23,71.23,0,0,0-2.11,10.19c-1.15,8.09-1.55,23.76-1.67,30.05l-1.86-.33c0,1.47,0,3,.06,4.69a223.45,223.45,0,0,0,39.35,3.42c2.6,0,5.3-.05,8.05-.15.15-1.48.33-3,.54-4.6C133.29,209.07,128.42,209.07,123.83,208.94Z" style="fill:#fff;opacity:0.8"/>
    <polygon points="99.47 190.41 116.63 191.96 116.63 202.84 99.47 201.12 99.47 190.41" style="fill:#fff"/>
    <path d="M129.52,142.29c.06.63-.22,1.18-.64,1.21s-.82-.46-.86-1.08.22-1.17.64-1.2S129.46,141.66,129.52,142.29Z" style="fill:#263238"/>
    <path d="M127.74,143.07l2.83,5.09a4.36,4.36,0,0,1-3.92.15Z" style="fill:#ba4d3c"/>
    <path d="M104.85,140c.38,8.42.36,12,4.54,16.38,6.42,4.5,16.56,4.29,18.7-4.08,1.93-7.53,1-20-7.2-23.53a11.51,11.51,0,0,0-16,11.23Z" style="fill:#ffc3bd"/>
    <path d="M126.2,139.34a.4.4,0,0,0,.32,0,2.6,2.6,0,0,1,2.38,0,.33.33,0,0,0,.45-.1.34.34,0,0,0-.1-.46,3.25,3.25,0,0,0-3-.09.33.33,0,0,0-.17.44h0A.44.44,0,0,0,126.2,139.34Z" style="fill:#263238"/>
    <path d="M123,145.5s1.43-6.2,0-7.92-.62-2.11.92-3.62,2.8-4.6-.35-6.16-9.35-2.52-14.41.43-5.34,6.83-5.43,9.71,1,12.72,2,15a7.86,7.86,0,0,0,3.66,3.41s1.15-1.27,4.35,0C113.74,156.35,121.66,149.22,123,145.5Z" style="fill:#263238"/>
    <path d="M122.32,142.35a6.52,6.52,0,0,1,1.27,4.81c-.33,2.26-2.58,2.49-4.24,1.11-1.51-1.25-3.13-3.93-2-5.84A2.93,2.93,0,0,1,122.32,142.35Z" style="fill:#ffc3bd"/>
    <path d="M102.11,136.71a17.77,17.77,0,0,0,1.56,7.26c6.21-.78,11.06-3.65,12.29-7.26Z" style="fill:#263238"/>
    <path d="M102.11,136.71a17.77,17.77,0,0,0,1.56,7.26c6.21-.78,11.06-3.65,12.29-7.26Z" style="fill:#fff;opacity:0.6000000000000001"/>
    <path d="M137.17,135.46h-6.11c-.44-7.73-4.91-13.8-12.8-13.8s-16.34,6.07-17.18,13.8H99.62a1.25,1.25,0,0,0,0,2.49h37.55A1.25,1.25,0,0,0,137.17,135.46Z" style="fill:#558CA1"/>
    <path d="M101.09,135.46h30a19.24,19.24,0,0,0-.79-4.52H102.51A12.63,12.63,0,0,0,101.09,135.46Z" style="opacity:0.1"/>
  </g>
</svg>